<?xml version="1.0" encoding="UTF-8"?>
<svg xmlns="http://www.w3.org/2000/svg" viewBox="0 0 160 175.72">
  <defs>
    <style>
      .c {
        stroke: #101125;
      }

      .c, .d {
        stroke-width: 2px;
      }

      .c, .e {
        fill: none;
      }

      .f {
        fill: #101125;
      }

      .d {
        fill: #626df5;
        stroke-miterlimit: 10;
      }

      .d, .e {
        stroke: #f3f5e7;
      }

      .g {
        fill: #f3f5e7;
      }

      .e {
        stroke-width: 5px;
      }
    </style>
  </defs>
  <g id="a" data-name="レイヤー 2">
    <rect class="g" width="160" height="160" rx="54.67" ry="54.67"/>
  </g>
  <g id="b" data-name="レイヤー 1">
    <g>
      <path class="d" d="m52.95,136.89c-8.64,0-16.81.3-24.51.89h-.38c-.76,0-1.35-.19-1.78-.57-.42-.38-.64-.95-.64-1.71-.08-.76-.13-2.08-.13-3.94s.04-3.05.13-3.81c0-.85.25-1.46.76-1.84s1.18-.53,2.03-.44c6.01.51,13.12.76,21.34.76h21.34c.84,0,1.5-.23,1.97-.7s.7-1.12.7-1.97v-17.4c0-.85-.23-1.5-.7-1.97-.47-.46-1.12-.7-1.97-.7h-14.86c-5.59,0-10.54.17-14.86.51h-.38c-.76,0-1.36-.19-1.78-.57-.42-.38-.64-.95-.64-1.71-.08-.68-.13-1.86-.13-3.56,0-1.86.04-3.18.13-3.94,0-1.61.93-2.41,2.79-2.41,9.65.76,21.5,1.14,35.56,1.14h23.37c6.77,0,13.67-.25,20.7-.76h.38c.76,0,1.35.19,1.78.57.42.38.64.95.64,1.71.08.76.13,1.99.13,3.68s-.04,2.88-.13,3.56c0,.85-.25,1.46-.76,1.84-.51.38-1.19.53-2.03.44-4.06-.34-9.53-.51-16.38-.51h-16.38c-.85,0-1.5.23-1.97.7s-.7,1.12-.7,1.97v17.4c0,.85.23,1.5.7,1.97.46.47,1.12.7,1.97.7h21.59c7.28,0,14.52-.25,21.72-.76h.38c.76,0,1.35.19,1.78.57.42.38.64.95.64,1.71.08.76.13,2.03.13,3.81s-.04,3.17-.13,3.94c0,1.69-.76,2.45-2.29,2.29-6.44-.59-14.78-.89-25.02-.89h-54.1Zm78.93-99.89c.46.47.7,1.12.7,1.97v9.4c0,3.56.13,6.73.38,9.52,0,1.78-.72,2.71-2.16,2.79-.85.09-2.24.13-4.19.13s-3.3-.04-4.06-.13c-1.36-.08-2.03-.85-2.03-2.29l.13-4.7v-4.06c0-.85-.23-1.5-.7-1.97-.47-.46-1.12-.7-1.97-.7h-16.26c-.85,0-1.5.23-1.97.7-.47.47-.7,1.12-.7,1.97v20.32c0,1.61.3,2.63.89,3.05.59.42,1.9.63,3.94.63h13.84c1.44,0,2.46-.4,3.05-1.21.59-.8.97-2.48,1.14-5.02.17-1.52.72-2.29,1.65-2.29.42,0,.89.13,1.4.38l4.83,1.9c1.69.51,2.41,1.57,2.16,3.18-.68,5.08-1.95,8.53-3.81,10.35-1.86,1.82-4.91,2.73-9.14,2.73h-16.64c-4.06,0-7.13-.4-9.21-1.21-2.08-.8-3.51-2.16-4.32-4.06-.81-1.91-1.21-4.68-1.21-8.32v-20.45c0-.85-.23-1.5-.7-1.97-.47-.46-1.12-.7-1.97-.7h-10.29c-1.69,0-2.62.85-2.79,2.54-.93,7.03-2.6,12.95-5.02,17.78-2.41,4.83-6.14,8.98-11.18,12.45-5.04,3.47-11.96,6.31-20.76,8.51-.25.08-.59.13-1.02.13-.93,0-1.74-.59-2.41-1.78-.76-1.61-1.82-3.3-3.18-5.08-.42-.68-.63-1.18-.63-1.52,0-.85.68-1.48,2.03-1.91,7.28-1.61,12.97-3.66,17.08-6.16,4.11-2.5,7.11-5.5,9.02-9.02,1.91-3.51,3.19-7.89,3.87-13.14v-.51c0-1.52-.81-2.29-2.41-2.29h-15.37c-.85,0-1.5.23-1.97.7-.47.47-.7,1.12-.7,1.97v5.33c0,2.63.04,4.53.13,5.71v.38c0,1.52-.68,2.29-2.03,2.29-.76.09-2.03.13-3.81.13-1.95,0-3.3-.04-4.06-.13-1.52-.08-2.2-.97-2.03-2.67.25-3.3.38-6.98.38-11.05v-10.67c0-.85.23-1.5.7-1.97.46-.46,1.12-.7,1.97-.7h40.64c.84,0,1.5-.23,1.97-.7.46-.46.7-1.12.7-1.97v-3.56c0-1.69-.04-3-.13-3.94,0-1.78.46-2.71,1.4-2.79h1.65c4.15,0,7.24.3,9.27.89.68.25,1.02.63,1.02,1.14,0,.17-.17.68-.51,1.52-.59,1.19-.89,2.46-.89,3.81v2.92c0,.85.23,1.5.7,1.97.46.47,1.12.7,1.97.7h41.66c.84,0,1.5.23,1.97.7Z"/>
      <path class="e" d="m52.95,136.89c-8.64,0-16.81.3-24.51.89h-.38c-.76,0-1.35-.19-1.78-.57-.42-.38-.64-.95-.64-1.71-.08-.76-.13-2.08-.13-3.94s.04-3.05.13-3.81c0-.85.25-1.46.76-1.84s1.18-.53,2.03-.44c6.01.51,13.12.76,21.34.76h21.34c.84,0,1.5-.23,1.97-.7s.7-1.12.7-1.97v-17.4c0-.85-.23-1.5-.7-1.97-.47-.46-1.12-.7-1.97-.7h-14.86c-5.59,0-10.54.17-14.86.51h-.38c-.76,0-1.36-.19-1.78-.57-.42-.38-.64-.95-.64-1.71-.08-.68-.13-1.86-.13-3.56,0-1.86.04-3.18.13-3.94,0-1.61.93-2.41,2.79-2.41,9.65.76,21.5,1.14,35.56,1.14h23.37c6.77,0,13.67-.25,20.7-.76h.38c.76,0,1.35.19,1.78.57.42.38.64.95.64,1.71.08.76.13,1.99.13,3.68s-.04,2.88-.13,3.56c0,.85-.25,1.46-.76,1.84-.51.38-1.19.53-2.03.44-4.06-.34-9.53-.51-16.38-.51h-16.38c-.85,0-1.5.23-1.97.7s-.7,1.12-.7,1.97v17.4c0,.85.23,1.5.7,1.97.46.47,1.12.7,1.97.7h21.59c7.28,0,14.52-.25,21.72-.76h.38c.76,0,1.35.19,1.78.57.42.38.64.95.64,1.71.08.76.13,2.03.13,3.81s-.04,3.17-.13,3.94c0,1.69-.76,2.45-2.29,2.29-6.44-.59-14.78-.89-25.02-.89h-54.1Zm78.93-99.89c.46.47.7,1.12.7,1.97v9.4c0,3.56.13,6.73.38,9.52,0,1.78-.72,2.71-2.16,2.79-.85.09-2.24.13-4.19.13s-3.3-.04-4.06-.13c-1.36-.08-2.03-.85-2.03-2.29l.13-4.7v-4.06c0-.85-.23-1.5-.7-1.97-.47-.46-1.12-.7-1.97-.7h-16.26c-.85,0-1.5.23-1.97.7-.47.47-.7,1.12-.7,1.97v20.32c0,1.61.3,2.63.89,3.05.59.42,1.9.63,3.94.63h13.84c1.44,0,2.46-.4,3.05-1.21.59-.8.97-2.48,1.14-5.02.17-1.52.72-2.29,1.65-2.29.42,0,.89.13,1.4.38l4.83,1.9c1.69.51,2.41,1.57,2.16,3.18-.68,5.08-1.95,8.53-3.81,10.35-1.86,1.82-4.91,2.73-9.14,2.73h-16.64c-4.06,0-7.13-.4-9.21-1.21-2.08-.8-3.51-2.16-4.32-4.06-.81-1.91-1.21-4.68-1.21-8.32v-20.45c0-.85-.23-1.5-.7-1.97-.47-.46-1.12-.7-1.97-.7h-10.29c-1.69,0-2.62.85-2.79,2.54-.93,7.03-2.6,12.95-5.02,17.78-2.41,4.83-6.14,8.98-11.18,12.45-5.04,3.47-11.96,6.31-20.76,8.51-.25.08-.59.13-1.02.13-.93,0-1.74-.59-2.41-1.78-.76-1.61-1.82-3.3-3.18-5.08-.42-.68-.63-1.18-.63-1.52,0-.85.68-1.48,2.03-1.91,7.28-1.61,12.97-3.66,17.08-6.16,4.11-2.5,7.11-5.5,9.02-9.02,1.91-3.51,3.19-7.89,3.87-13.14v-.51c0-1.52-.81-2.29-2.41-2.29h-15.37c-.85,0-1.5.23-1.97.7-.47.47-.7,1.12-.7,1.97v5.33c0,2.63.04,4.53.13,5.71v.38c0,1.52-.68,2.29-2.03,2.29-.76.09-2.03.13-3.81.13-1.95,0-3.3-.04-4.06-.13-1.52-.08-2.2-.97-2.03-2.67.25-3.3.38-6.98.38-11.05v-10.67c0-.85.23-1.5.7-1.97.46-.46,1.12-.7,1.97-.7h40.64c.84,0,1.5-.23,1.97-.7.46-.46.7-1.12.7-1.97v-3.56c0-1.69-.04-3-.13-3.94,0-1.78.46-2.71,1.4-2.79h1.65c4.15,0,7.24.3,9.27.89.68.25,1.02.63,1.02,1.14,0,.17-.17.68-.51,1.52-.59,1.19-.89,2.46-.89,3.81v2.92c0,.85.23,1.5.7,1.97.46.47,1.12.7,1.97.7h41.66c.84,0,1.5.23,1.97.7Z"/>
      <path class="c" d="m52.95,136.89c-8.64,0-16.81.3-24.51.89h-.38c-.76,0-1.35-.19-1.78-.57-.42-.38-.64-.95-.64-1.71-.08-.76-.13-2.08-.13-3.94s.04-3.05.13-3.81c0-.85.25-1.46.76-1.84s1.18-.53,2.03-.44c6.01.51,13.12.76,21.34.76h21.34c.84,0,1.5-.23,1.97-.7s.7-1.12.7-1.97v-17.4c0-.85-.23-1.5-.7-1.97-.47-.46-1.12-.7-1.97-.7h-14.86c-5.59,0-10.54.17-14.86.51h-.38c-.76,0-1.36-.19-1.78-.57-.42-.38-.64-.95-.64-1.71-.08-.68-.13-1.86-.13-3.56,0-1.86.04-3.18.13-3.94,0-1.61.93-2.41,2.79-2.41,9.65.76,21.5,1.14,35.56,1.14h23.37c6.77,0,13.67-.25,20.7-.76h.38c.76,0,1.35.19,1.78.57.42.38.64.95.64,1.71.08.76.13,1.99.13,3.68s-.04,2.88-.13,3.56c0,.85-.25,1.46-.76,1.84-.51.38-1.19.53-2.03.44-4.06-.34-9.53-.51-16.38-.51h-16.38c-.85,0-1.5.23-1.97.7s-.7,1.12-.7,1.97v17.4c0,.85.23,1.5.7,1.97.46.47,1.12.7,1.97.7h21.59c7.28,0,14.52-.25,21.72-.76h.38c.76,0,1.35.19,1.78.57.42.38.64.95.64,1.71.08.76.13,2.03.13,3.81s-.04,3.17-.13,3.94c0,1.69-.76,2.45-2.29,2.29-6.44-.59-14.78-.89-25.02-.89h-54.1Zm78.93-99.89c.46.47.7,1.12.7,1.97v9.4c0,3.56.13,6.73.38,9.52,0,1.78-.72,2.71-2.16,2.79-.85.09-2.24.13-4.19.13s-3.3-.04-4.06-.13c-1.36-.08-2.03-.85-2.03-2.29l.13-4.7v-4.06c0-.85-.23-1.5-.7-1.97-.47-.46-1.12-.7-1.97-.7h-16.26c-.85,0-1.5.23-1.97.7-.47.47-.7,1.12-.7,1.97v20.32c0,1.61.3,2.63.89,3.05.59.42,1.9.63,3.94.63h13.84c1.44,0,2.46-.4,3.05-1.21.59-.8.97-2.48,1.14-5.02.17-1.52.72-2.29,1.65-2.29.42,0,.89.13,1.4.38l4.83,1.9c1.69.51,2.41,1.57,2.16,3.18-.68,5.08-1.95,8.53-3.81,10.35-1.86,1.82-4.91,2.73-9.14,2.73h-16.64c-4.06,0-7.13-.4-9.21-1.21-2.08-.8-3.51-2.16-4.32-4.06-.81-1.91-1.21-4.68-1.21-8.32v-20.45c0-.85-.23-1.5-.7-1.97-.47-.46-1.12-.7-1.97-.7h-10.29c-1.69,0-2.62.85-2.79,2.54-.93,7.03-2.6,12.95-5.02,17.78-2.41,4.83-6.14,8.98-11.18,12.45-5.04,3.47-11.96,6.31-20.76,8.51-.25.08-.59.13-1.02.13-.93,0-1.74-.59-2.41-1.78-.76-1.61-1.82-3.3-3.18-5.08-.42-.68-.63-1.18-.63-1.52,0-.85.68-1.48,2.03-1.91,7.28-1.61,12.97-3.66,17.08-6.16,4.11-2.5,7.11-5.5,9.02-9.02,1.91-3.51,3.19-7.89,3.87-13.14v-.51c0-1.52-.81-2.29-2.41-2.29h-15.37c-.85,0-1.5.23-1.97.7-.47.47-.7,1.12-.7,1.97v5.33c0,2.63.04,4.53.13,5.71v.38c0,1.52-.68,2.29-2.03,2.29-.76.09-2.03.13-3.81.13-1.95,0-3.3-.04-4.06-.13-1.52-.08-2.2-.97-2.03-2.67.25-3.3.38-6.98.38-11.05v-10.67c0-.85.23-1.5.7-1.97.46-.46,1.12-.7,1.97-.7h40.64c.84,0,1.5-.23,1.97-.7.46-.46.7-1.12.7-1.97v-3.56c0-1.69-.04-3-.13-3.94,0-1.78.46-2.71,1.4-2.79h1.65c4.15,0,7.24.3,9.27.89.68.25,1.02.63,1.02,1.14,0,.17-.17.68-.51,1.52-.59,1.19-.89,2.46-.89,3.81v2.92c0,.85.23,1.5.7,1.97.46.47,1.12.7,1.97.7h41.66c.84,0,1.5.23,1.97.7Z"/>
      <path class="f" d="m52.95,136.89c-8.64,0-16.81.3-24.51.89h-.38c-.76,0-1.35-.19-1.78-.57-.42-.38-.64-.95-.64-1.71-.08-.76-.13-2.08-.13-3.94s.04-3.05.13-3.81c0-.85.25-1.46.76-1.84s1.18-.53,2.03-.44c6.01.51,13.12.76,21.34.76h21.34c.84,0,1.5-.23,1.97-.7s.7-1.12.7-1.97v-17.4c0-.85-.23-1.5-.7-1.97-.47-.46-1.12-.7-1.97-.7h-14.86c-5.59,0-10.54.17-14.86.51h-.38c-.76,0-1.36-.19-1.78-.57-.42-.38-.64-.95-.64-1.71-.08-.68-.13-1.86-.13-3.56,0-1.86.04-3.18.13-3.94,0-1.61.93-2.41,2.79-2.41,9.65.76,21.5,1.14,35.56,1.14h23.37c6.77,0,13.67-.25,20.7-.76h.38c.76,0,1.35.19,1.78.57.42.38.64.95.64,1.71.08.76.13,1.99.13,3.68s-.04,2.88-.13,3.56c0,.85-.25,1.46-.76,1.84-.51.38-1.19.53-2.03.44-4.06-.34-9.53-.51-16.38-.51h-16.38c-.85,0-1.5.23-1.97.7s-.7,1.12-.7,1.97v17.4c0,.85.23,1.5.7,1.97.46.47,1.12.7,1.97.7h21.59c7.28,0,14.52-.25,21.72-.76h.38c.76,0,1.35.19,1.78.57.42.38.64.95.64,1.71.08.76.13,2.03.13,3.81s-.04,3.17-.13,3.94c0,1.69-.76,2.45-2.29,2.29-6.44-.59-14.78-.89-25.02-.89h-54.1Zm78.93-99.89c.46.47.7,1.12.7,1.97v9.4c0,3.56.13,6.73.38,9.52,0,1.78-.72,2.71-2.16,2.79-.85.09-2.24.13-4.19.13s-3.3-.04-4.06-.13c-1.36-.08-2.03-.85-2.03-2.29l.13-4.7v-4.06c0-.85-.23-1.5-.7-1.97-.47-.46-1.12-.7-1.97-.7h-16.26c-.85,0-1.5.23-1.97.7-.47.47-.7,1.12-.7,1.97v20.32c0,1.61.3,2.63.89,3.05.59.42,1.9.63,3.94.63h13.84c1.44,0,2.46-.4,3.05-1.21.59-.8.97-2.48,1.14-5.02.17-1.52.72-2.29,1.65-2.29.42,0,.89.13,1.4.38l4.83,1.9c1.69.51,2.41,1.57,2.16,3.18-.68,5.08-1.95,8.53-3.81,10.35-1.86,1.82-4.91,2.73-9.14,2.73h-16.64c-4.06,0-7.13-.4-9.21-1.21-2.08-.8-3.51-2.16-4.32-4.06-.81-1.91-1.21-4.68-1.21-8.32v-20.45c0-.85-.23-1.5-.7-1.97-.47-.46-1.12-.7-1.97-.7h-10.29c-1.69,0-2.62.85-2.79,2.54-.93,7.03-2.6,12.95-5.02,17.78-2.41,4.83-6.14,8.98-11.18,12.45-5.04,3.47-11.96,6.31-20.76,8.51-.25.08-.59.13-1.02.13-.93,0-1.74-.59-2.41-1.78-.76-1.61-1.82-3.3-3.18-5.08-.42-.68-.63-1.18-.63-1.52,0-.85.68-1.48,2.03-1.91,7.28-1.61,12.97-3.66,17.08-6.16,4.11-2.5,7.11-5.5,9.02-9.02,1.91-3.51,3.19-7.89,3.87-13.14v-.51c0-1.52-.81-2.29-2.41-2.29h-15.37c-.85,0-1.5.23-1.97.7-.47.47-.7,1.12-.7,1.97v5.33c0,2.63.04,4.53.13,5.71v.38c0,1.52-.68,2.29-2.03,2.29-.76.09-2.03.13-3.81.13-1.95,0-3.3-.04-4.06-.13-1.52-.08-2.2-.97-2.03-2.67.25-3.3.38-6.98.38-11.05v-10.67c0-.85.23-1.5.7-1.97.46-.46,1.12-.7,1.97-.7h40.64c.84,0,1.5-.23,1.97-.7.46-.46.7-1.12.7-1.97v-3.56c0-1.69-.04-3-.13-3.94,0-1.78.46-2.71,1.4-2.79h1.65c4.15,0,7.24.3,9.27.89.68.25,1.02.63,1.02,1.14,0,.17-.17.68-.51,1.52-.59,1.19-.89,2.46-.89,3.81v2.92c0,.85.23,1.5.7,1.97.46.47,1.12.7,1.97.7h41.66c.84,0,1.5.23,1.97.7Z"/>
    </g>
  </g>
</svg>